<?xml version="1.0" standalone="no"?>
<!DOCTYPE svg PUBLIC "-//W3C//DTD SVG 20010904//EN"
 "http://www.w3.org/TR/2001/REC-SVG-20010904/DTD/svg10.dtd">
<svg version="1.0" xmlns="http://www.w3.org/2000/svg"
 width="1036.000000pt" height="1036.000000pt" viewBox="0 0 1036.000000 1036.000000"
 preserveAspectRatio="xMidYMid meet">
<metadata>
Created by potrace 1.14, written by Peter Selinger 2001-2017
</metadata>
<g transform="translate(0.000000,1036.000000) scale(0.100000,-0.100000)"
fill="#000000" stroke="none">
<path d="M2740 5244 l0 -2814 687 2 688 3 1 1080 c1 594 2 1085 3 1091 1 7
314 10 1059 10 l1057 -1 0 -1092 0 -1093 688 0 687 0 0 2814 0 2814 -684 0
c-506 0 -686 -3 -688 -12 -2 -6 -3 -500 -3 -1098 1 -761 -2 -1088 -9 -1091
-10 -3 -2093 -1 -2106 2 -3 0 -6 495 -5 1099 l0 1097 -688 1 -687 2 0 -2814z"/>
</g>
</svg>
